<svg width="20" height="20" viewBox="0 0 20 20" fill="none" xmlns="http://www.w3.org/2000/svg">
    <path d="M9.16667 16.6667C8.93056 16.6667 8.73278 16.5867 8.57333 16.4267C8.41389 16.2667 8.33389 16.0689 8.33333 15.8333V10.8333L3.5 4.66668C3.29167 4.3889 3.26056 4.09723 3.40667 3.79168C3.55278 3.48612 3.80611 3.33334 4.16667 3.33334H15.8333C16.1944 3.33334 16.4481 3.48612 16.5942 3.79168C16.7403 4.09723 16.7089 4.3889 16.5 4.66668L11.6667 10.8333V15.8333C11.6667 16.0695 11.5867 16.2675 11.4267 16.4275C11.2667 16.5875 11.0689 16.6672 10.8333 16.6667H9.16667ZM10 10.25L14.125 5.00001H5.875L10 10.25Z" fill="#2A2A2A"/>
</svg>
