<svg width="40" height="40" viewBox="0 0 40 40" fill="none" xmlns="http://www.w3.org/2000/svg">
    <path d="M12.5 36.6666C10.8888 36.6666 9.51385 36.0972 8.37496 34.9583C7.23607 33.8194 6.66663 32.4444 6.66663 30.8333V9.16665C6.66663 7.55554 7.23607 6.18054 8.37496 5.04165C9.51385 3.90276 10.8888 3.33331 12.5 3.33331H33.3333V28.3333C32.6388 28.3333 32.0488 28.5766 31.5633 29.0633C31.0777 29.55 30.8344 30.14 30.8333 30.8333C30.8322 31.5266 31.0755 32.1172 31.5633 32.605C32.0511 33.0928 32.6411 33.3355 33.3333 33.3333V36.6666H12.5ZM9.99996 25.5416C10.3888 25.3472 10.7916 25.2083 11.2083 25.125C11.625 25.0416 12.0555 25 12.5 25H13.3333V6.66665H12.5C11.8055 6.66665 11.2155 6.90998 10.73 7.39665C10.2444 7.88331 10.0011 8.47331 9.99996 9.16665V25.5416ZM16.6666 25H30V6.66665H16.6666V25ZM12.5 33.3333H28.0416C27.875 32.9444 27.7433 32.5489 27.6466 32.1466C27.55 31.7444 27.5011 31.3066 27.5 30.8333C27.5 30.3889 27.5416 29.9583 27.625 29.5416C27.7083 29.125 27.8472 28.7222 28.0416 28.3333H12.5C11.7777 28.3333 11.1805 28.5766 10.7083 29.0633C10.2361 29.55 9.99996 30.14 9.99996 30.8333C9.99996 31.5555 10.2361 32.1528 10.7083 32.625C11.1805 33.0972 11.7777 33.3333 12.5 33.3333Z" fill="black"/>
</svg>
