<svg width="218" height="30" viewBox="0 0 218 30" fill="none" xmlns="http://www.w3.org/2000/svg">
<path d="M18.4798 30H0V27.6801H18.4798V30Z" fill="white"/>
<path d="M40.8063 19.5307C40.1322 21.7515 39.0284 23.5162 37.495 24.8249C35.9617 26.1203 34.0317 26.768 31.7052 26.768C29.8943 26.768 28.3609 26.3979 27.1051 25.6576C25.8493 24.9042 24.8182 23.9128 24.0119 22.6834C23.2188 21.4541 22.6438 20.033 22.2868 18.4204C21.9432 16.8077 21.7713 15.1355 21.7713 13.4038C21.7713 11.6722 21.9432 10 22.2868 8.38731C22.6438 6.77462 23.2188 5.34699 24.0119 4.10443C24.8182 2.86186 25.8493 1.87046 27.1051 1.1302C28.3609 0.376735 29.8943 0 31.7052 0C33.3047 0 34.6728 0.284204 35.8097 0.852611C36.9465 1.42102 37.7859 2.28685 38.3278 3.4501V0.436219H40.6477V8.92267H38.3278C38.3278 8.01058 38.1494 7.15135 37.7925 6.34501C37.4488 5.52545 36.9795 4.81824 36.3847 4.2234C35.7898 3.62855 35.0826 3.1659 34.2631 2.83543C33.4567 2.49174 32.6041 2.31989 31.7052 2.31989C30.304 2.31989 29.1408 2.65036 28.2155 3.3113C27.3034 3.97224 26.5697 4.83807 26.0145 5.90879C25.4594 6.97951 25.0628 8.1692 24.8249 9.47786C24.6001 10.7865 24.4878 12.0952 24.4878 13.4038C24.4878 14.6993 24.6001 16.0079 24.8249 17.3298C25.0628 18.6385 25.4594 19.8215 26.0145 20.879C26.5697 21.9233 27.3034 22.7826 28.2155 23.4567C29.1408 24.1176 30.304 24.4481 31.7052 24.4481C34.9306 24.4481 37.1778 22.4983 38.4468 18.5988L40.8063 19.5307Z" fill="white"/>
<path d="M63.2915 17.1315C63.2915 18.5724 63.0601 19.881 62.5975 21.0575C62.1481 22.234 61.4937 23.2452 60.6345 24.0912C59.7885 24.924 58.7707 25.5783 57.581 26.0542C56.3913 26.5301 55.0628 26.768 53.5955 26.768C52.1547 26.768 50.8394 26.5301 49.6497 26.0542C48.46 25.5783 47.4356 24.924 46.5763 24.0912C45.7303 23.2452 45.076 22.234 44.6133 21.0575C44.1639 19.881 43.9392 18.5724 43.9392 17.1315C43.9392 15.7303 44.1639 14.4283 44.6133 13.2254C45.076 12.0093 45.7303 10.9782 46.5763 10.1322C47.4356 9.27297 48.46 8.60542 49.6497 8.12954C50.8394 7.64045 52.1547 7.3959 53.5955 7.3959C55.0628 7.3959 56.3913 7.64045 57.581 8.12954C58.7707 8.60542 59.7885 9.27297 60.6345 10.1322C61.4937 10.9782 62.1481 12.0093 62.5975 13.2254C63.0601 14.4283 63.2915 15.7303 63.2915 17.1315ZM60.575 17.1315C60.575 16.074 60.4164 15.1024 60.0991 14.2168C59.7951 13.3179 59.3391 12.5314 58.731 11.8572C58.1229 11.1831 57.3827 10.6543 56.5102 10.271C55.651 9.88764 54.6794 9.69597 53.5955 9.69597C52.5116 9.69597 51.5334 9.88764 50.6609 10.271C49.8017 10.6543 49.0747 11.1831 48.4798 11.8572C47.885 12.5314 47.429 13.3179 47.1117 14.2168C46.8077 15.1024 46.6557 16.074 46.6557 17.1315C46.6557 18.189 46.8077 19.1672 47.1117 20.0661C47.429 20.9518 47.885 21.7184 48.4798 22.3662C49.0747 23.0139 49.8017 23.5228 50.6609 23.8929C51.5334 24.2631 52.5116 24.4481 53.5955 24.4481C54.6794 24.4481 55.651 24.2631 56.5102 23.8929C57.3827 23.5228 58.1229 23.0139 58.731 22.3662C59.3391 21.7184 59.7951 20.9518 60.0991 20.0661C60.4164 19.1672 60.575 18.189 60.575 17.1315Z" fill="white"/>
<path d="M84.0119 26.312H81.2756V24.6067C80.4957 25.3073 79.6365 25.8427 78.698 26.2128C77.7726 26.5829 76.8209 26.768 75.8427 26.768C74.3754 26.768 73.0601 26.5301 71.8969 26.0542C70.7336 25.5783 69.7488 24.9174 68.9425 24.0714C68.1494 23.2122 67.5347 22.1877 67.0985 20.998C66.6755 19.8083 66.464 18.5063 66.464 17.0919C66.464 15.6907 66.6755 14.3952 67.0985 13.2056C67.5347 12.0026 68.1494 10.9782 68.9425 10.1322C69.7488 9.27297 70.7336 8.60542 71.8969 8.12954C73.0601 7.64045 74.3754 7.3959 75.8427 7.3959C76.8209 7.3959 77.7726 7.57436 78.698 7.93126C79.6365 8.27495 80.4957 8.79709 81.2756 9.49769V2.75611H77.5876V0.436219H84.0119V26.312ZM81.2756 12.1348C80.4957 11.2756 79.6431 10.6543 78.7178 10.271C77.8057 9.88764 76.8341 9.69597 75.803 9.69597C74.7191 9.69597 73.7607 9.88764 72.928 10.271C72.1084 10.6543 71.421 11.1765 70.8658 11.8374C70.3106 12.4983 69.8876 13.2783 69.5968 14.1771C69.3192 15.0628 69.1804 16.0344 69.1804 17.0919C69.1804 18.1494 69.3192 19.1276 69.5968 20.0264C69.8876 20.9121 70.3106 21.6854 70.8658 22.3463C71.421 23.0073 72.1084 23.5294 72.928 23.9128C73.7607 24.2961 74.7191 24.4878 75.803 24.4878C77.8916 24.4878 79.7158 23.6616 81.2756 22.0093V12.1348Z" fill="white"/>
<path d="M91.388 18.0238C91.5863 19.9802 92.3001 21.54 93.5294 22.7032C94.7588 23.8665 96.3582 24.4481 98.3278 24.4481C99.7158 24.4481 100.952 24.1639 102.036 23.5955C103.12 23.0271 103.933 22.3199 104.475 21.4739L106.378 22.7826C105.453 24.078 104.349 25.0694 103.067 25.7568C101.785 26.4309 100.205 26.768 98.3278 26.768C96.9002 26.768 95.5915 26.5301 94.4018 26.0542C93.2122 25.5783 92.1811 24.9174 91.3087 24.0714C90.4494 23.2122 89.7819 22.1943 89.306 21.0178C88.8301 19.8414 88.5922 18.5327 88.5922 17.0919C88.5922 15.6907 88.8037 14.4019 89.2267 13.2254C89.6629 12.0357 90.2842 11.0112 91.0905 10.152C91.9101 9.27958 92.9015 8.60542 94.0648 8.12954C95.228 7.64045 96.5301 7.3959 97.9709 7.3959C99.544 7.3959 100.919 7.66028 102.095 8.18903C103.272 8.71778 104.25 9.45142 105.03 10.39C105.823 11.3153 106.404 12.4256 106.775 13.7211C107.158 15.0165 107.35 16.4508 107.35 18.0238H91.388ZM104.475 15.7039C104.171 13.6814 103.437 12.1745 102.274 11.1831C101.11 10.1917 99.6761 9.69597 97.9709 9.69597C97.0985 9.69597 96.2921 9.84137 95.5519 10.1322C94.8116 10.4098 94.1573 10.813 93.5889 11.3417C93.0205 11.8705 92.5446 12.5116 92.1613 13.265C91.7779 14.0053 91.5334 14.8182 91.4276 15.7039H104.475Z" fill="white"/>
<path d="M110.8 21.3153C110.8 20.152 111.091 19.1804 111.672 18.4005C112.254 17.6074 113.014 16.9861 113.952 16.5367C114.904 16.074 115.988 15.7436 117.204 15.5453C118.434 15.3338 119.683 15.228 120.952 15.228C121.441 15.228 121.877 15.2346 122.26 15.2479C122.657 15.2611 123.027 15.2809 123.371 15.3073C123.728 15.3338 124.085 15.3668 124.442 15.4065C124.798 15.4461 125.188 15.4924 125.611 15.5453V14.2168C125.611 13.3179 125.413 12.5777 125.017 11.996C124.633 11.4144 124.157 10.9584 123.589 10.6279C123.02 10.2842 122.426 10.0463 121.804 9.91408C121.183 9.76867 120.654 9.69597 120.218 9.69597C118.843 9.69597 117.574 9.88103 116.411 10.2512C115.248 10.6213 114.164 11.117 113.159 11.7383L111.93 9.69597C113.04 9.02181 114.283 8.47323 115.658 8.05023C117.046 7.61401 118.566 7.3959 120.218 7.3959C121.223 7.3959 122.208 7.52809 123.173 7.79247C124.151 8.04362 125.023 8.44019 125.79 8.98215C126.57 9.51091 127.191 10.2115 127.654 11.0839C128.116 11.9564 128.348 13.0007 128.348 14.2168V26.312H125.611V23.2188C125.135 23.8136 124.594 24.3358 123.985 24.7852C123.391 25.2346 122.763 25.6048 122.102 25.8956C121.441 26.1732 120.78 26.3847 120.119 26.5301C119.458 26.6887 118.83 26.768 118.235 26.768C115.79 26.768 113.939 26.2987 112.683 25.3602C111.428 24.4217 110.8 23.0734 110.8 21.3153ZM118.235 24.4481C119.372 24.4481 120.39 24.2829 121.289 23.9524C122.201 23.6087 122.974 23.1857 123.609 22.6834C124.243 22.1811 124.732 21.6457 125.076 21.0773C125.433 20.5089 125.611 19.9934 125.611 19.5307V17.7859C124.726 17.6537 123.873 17.581 123.054 17.5677C122.247 17.5545 121.547 17.5479 120.952 17.5479C119.974 17.5479 119.028 17.614 118.116 17.7462C117.217 17.8784 116.431 18.0965 115.757 18.4005C115.083 18.6913 114.541 19.0747 114.131 19.5506C113.721 20.0264 113.516 20.6147 113.516 21.3153C113.516 22.0952 113.893 22.8156 114.646 23.4765C115.413 24.1243 116.609 24.4481 118.235 24.4481Z" fill="white"/>
<path d="M151.487 26.312H148.771V13.0271C148.771 11.9696 148.586 11.15 148.215 10.5684C147.845 9.98678 147.31 9.69597 146.609 9.69597C145.578 9.69597 144.818 10.2379 144.329 11.3219C143.853 12.4058 143.615 13.926 143.615 15.8824V26.312H140.879V13.0271C140.879 11.9696 140.687 11.15 140.304 10.5684C139.934 9.98678 139.399 9.69597 138.698 9.69597C138.05 9.69597 137.535 9.88764 137.151 10.271C136.768 10.6543 136.464 11.1434 136.239 11.7383C136.028 12.3331 135.889 12.9941 135.823 13.7211C135.757 14.4481 135.724 15.1685 135.724 15.8824V26.312H133.007V7.83212H135.724V10.5089C136.292 8.43358 137.528 7.3959 139.432 7.3959C141.243 7.3959 142.472 8.30139 143.12 10.1124C144.019 8.30139 145.288 7.3959 146.927 7.3959C148.5 7.3959 149.65 7.86517 150.377 8.8037C151.117 9.72902 151.487 11.1368 151.487 13.0271V26.312Z" fill="white"/>
<path d="M166.259 4.14408H162.571V0.436219H166.259V4.14408ZM169.947 26.312H158.863V23.9921H163.047V10.152H158.863V7.83212H165.783V23.9921H169.947V26.312Z" fill="white"/>
<path d="M195.129 22.7826C194.349 23.9987 193.278 24.9703 191.917 25.6973C190.568 26.4111 188.962 26.768 187.098 26.768C185.658 26.768 184.336 26.5301 183.133 26.0542C181.93 25.5783 180.899 24.9174 180.04 24.0714C179.194 23.2122 178.533 22.1943 178.057 21.0178C177.581 19.8414 177.343 18.5327 177.343 17.0919C177.343 15.6907 177.561 14.3952 177.997 13.2056C178.434 12.0026 179.055 10.9782 179.861 10.1322C180.668 9.27297 181.652 8.60542 182.816 8.12954C183.992 7.64045 185.294 7.3959 186.722 7.3959C187.29 7.3959 187.872 7.462 188.467 7.59418C189.061 7.72637 189.623 7.93126 190.152 8.20886C190.681 8.47323 191.157 8.79709 191.58 9.18044C192.003 9.55056 192.32 9.99339 192.531 10.5089V7.83212H194.97V15.228H192.531C192.531 14.4085 192.379 13.6616 192.075 12.9874C191.785 12.3133 191.381 11.7317 190.866 11.2426C190.35 10.7535 189.736 10.3767 189.022 10.1124C188.308 9.83477 187.541 9.69597 186.722 9.69597C185.611 9.69597 184.64 9.88764 183.807 10.271C182.987 10.6543 182.3 11.1765 181.745 11.8374C181.19 12.4983 180.767 13.2783 180.476 14.1771C180.198 15.0628 180.059 16.0344 180.059 17.0919C180.059 18.1494 180.218 19.1276 180.535 20.0264C180.866 20.9121 181.335 21.6788 181.943 22.3265C182.564 22.9742 183.305 23.4898 184.164 23.8731C185.036 24.2564 186.015 24.4481 187.098 24.4481C188.473 24.4481 189.696 24.1771 190.767 23.6352C191.837 23.0932 192.657 22.3728 193.225 21.4739L195.129 22.7826Z" fill="white"/>
<path d="M199.471 21.3153C199.471 20.152 199.762 19.1804 200.344 18.4005C200.925 17.6074 201.685 16.9861 202.624 16.5367C203.576 16.074 204.66 15.7436 205.876 15.5453C207.105 15.3338 208.354 15.228 209.623 15.228C210.112 15.228 210.549 15.2346 210.932 15.2479C211.328 15.2611 211.699 15.2809 212.042 15.3073C212.399 15.3338 212.756 15.3668 213.113 15.4065C213.47 15.4461 213.86 15.4924 214.283 15.5453V14.2168C214.283 13.3179 214.085 12.5777 213.688 11.996C213.305 11.4144 212.829 10.9584 212.26 10.6279C211.692 10.2842 211.097 10.0463 210.476 9.91408C209.855 9.76867 209.326 9.69597 208.89 9.69597C207.515 9.69597 206.246 9.88103 205.083 10.2512C203.919 10.6213 202.835 11.117 201.831 11.7383L200.601 9.69597C201.712 9.02181 202.954 8.47323 204.329 8.05023C205.717 7.61401 207.237 7.3959 208.89 7.3959C209.894 7.3959 210.879 7.52809 211.844 7.79247C212.822 8.04362 213.695 8.44019 214.461 8.98215C215.241 9.51091 215.863 10.2115 216.325 11.0839C216.788 11.9564 217.019 13.0007 217.019 14.2168V26.312H214.283V23.2188C213.807 23.8136 213.265 24.3358 212.657 24.7852C212.062 25.2346 211.434 25.6048 210.773 25.8956C210.112 26.1732 209.451 26.3847 208.79 26.5301C208.13 26.6887 207.502 26.768 206.907 26.768C204.461 26.768 202.611 26.2987 201.355 25.3602C200.099 24.4217 199.471 23.0734 199.471 21.3153ZM206.907 24.4481C208.044 24.4481 209.061 24.2829 209.96 23.9524C210.872 23.6087 211.646 23.1857 212.28 22.6834C212.915 22.1811 213.404 21.6457 213.748 21.0773C214.104 20.5089 214.283 19.9934 214.283 19.5307V17.7859C213.397 17.6537 212.545 17.581 211.725 17.5677C210.919 17.5545 210.218 17.5479 209.623 17.5479C208.645 17.5479 207.7 17.614 206.788 17.7462C205.889 17.8784 205.102 18.0965 204.428 18.4005C203.754 18.6913 203.212 19.0747 202.802 19.5506C202.393 20.0264 202.188 20.6147 202.188 21.3153C202.188 22.0952 202.564 22.8156 203.318 23.4765C204.085 24.1243 205.281 24.4481 206.907 24.4481Z" fill="white"/>
</svg>
