<svg width="17" height="16" viewBox="0 0 17 16" fill="none" xmlns="http://www.w3.org/2000/svg">
    <path d="M6.94866 10.6667C5.73755 10.6667 4.71266 10.2471 3.87399 9.408C3.03533 8.56889 2.61577 7.544 2.61533 6.33333C2.61488 5.12267 3.03444 4.09778 3.87399 3.25867C4.71355 2.41956 5.73844 2 6.94866 2C8.15888 2 9.18399 2.41956 10.024 3.25867C10.864 4.09778 11.2833 5.12267 11.282 6.33333C11.282 6.82222 11.2042 7.28333 11.0487 7.71667C10.8931 8.15 10.682 8.53333 10.4153 8.86667L14.1487 12.6C14.2709 12.7222 14.332 12.8778 14.332 13.0667C14.332 13.2556 14.2709 13.4111 14.1487 13.5333C14.0264 13.6556 13.8709 13.7167 13.682 13.7167C13.4931 13.7167 13.3375 13.6556 13.2153 13.5333L9.48199 9.8C9.14866 10.0667 8.76533 10.2778 8.33199 10.4333C7.89866 10.5889 7.43755 10.6667 6.94866 10.6667ZM6.94866 9.33333C7.78199 9.33333 8.49044 9.04178 9.07399 8.45867C9.65755 7.87556 9.9491 7.16711 9.94866 6.33333C9.94822 5.49956 9.65666 4.79133 9.07399 4.20867C8.49133 3.626 7.78288 3.33422 6.94866 3.33333C6.11444 3.33244 5.40622 3.62422 4.82399 4.20867C4.24177 4.79311 3.94999 5.50133 3.94866 6.33333C3.94733 7.16533 4.2391 7.87378 4.82399 8.45867C5.40888 9.04356 6.1171 9.33511 6.94866 9.33333Z" fill="#2A2A2A"/>
</svg>
