<svg width="51" height="50" viewBox="0 0 51 50" fill="none" xmlns="http://www.w3.org/2000/svg">
    <path d="M25.3333 45.8333C22.4514 45.8333 19.7431 45.2861 17.2083 44.1917C14.6736 43.0972 12.4688 41.6132 10.5938 39.7396C8.71875 37.866 7.23472 35.6611 6.14167 33.125C5.04861 30.5889 4.50139 27.8805 4.5 25C4.49861 22.1194 5.04584 19.4111 6.14167 16.875C7.2375 14.3389 8.72153 12.134 10.5938 10.2604C12.466 8.3868 14.6708 6.90277 17.2083 5.80832C19.7458 4.71388 22.4542 4.16666 25.3333 4.16666C28.2125 4.16666 30.9208 4.71388 33.4583 5.80832C35.9958 6.90277 38.2007 8.3868 40.0729 10.2604C41.9451 12.134 43.4299 14.3389 44.5271 16.875C45.6243 19.4111 46.1708 22.1194 46.1667 25C46.1625 27.8805 45.6153 30.5889 44.525 33.125C43.4347 35.6611 41.9507 37.866 40.0729 39.7396C38.1951 41.6132 35.9903 43.0979 33.4583 44.1937C30.9264 45.2896 28.2181 45.8361 25.3333 45.8333ZM25.3333 41.6667C27.5556 41.6667 29.691 41.25 31.7396 40.4167C33.7882 39.5833 35.5938 38.3854 37.1562 36.8229L25.3333 25V8.33332C20.6806 8.33332 16.7396 9.94791 13.5104 13.1771C10.2813 16.4062 8.66667 20.3472 8.66667 25C8.66667 29.6528 10.2813 33.5937 13.5104 36.8229C16.7396 40.0521 20.6806 41.6667 25.3333 41.6667Z" fill="#2A2A2A"/>
</svg>
