<svg width="174" height="24" viewBox="0 0 174 24" fill="none" xmlns="http://www.w3.org/2000/svg">
    <path d="M14.7839 24H0V22.1441H14.7839V24Z" fill="#2A2A2A"/>
    <path d="M32.6451 15.6246C32.1057 17.4012 31.2227 18.813 29.996 19.8599C28.7693 20.8962 27.2254 21.4144 25.3642 21.4144C23.9154 21.4144 22.6887 21.1183 21.6841 20.5261C20.6794 19.9233 19.8546 19.1302 19.2095 18.1467C18.575 17.1633 18.115 16.0264 17.8295 14.7363C17.5545 13.4461 17.4171 12.1084 17.4171 10.7231C17.4171 9.33774 17.5545 8 17.8295 6.70985C18.115 5.4197 18.575 4.27759 19.2095 3.28354C19.8546 2.28949 20.6794 1.49636 21.6841 0.904164C22.6887 0.301388 23.9154 0 25.3642 0C26.6438 0 27.7383 0.227363 28.6477 0.682089C29.5572 1.13681 30.2287 1.82948 30.6623 2.76008V0.348976H32.5182V7.13814H30.6623C30.6623 6.40846 30.5195 5.72108 30.234 5.07601C29.959 4.42036 29.5836 3.85459 29.1077 3.37872C28.6319 2.90284 28.0661 2.53272 27.4104 2.26834C26.7654 1.99339 26.0833 1.85592 25.3642 1.85592C24.2432 1.85592 23.3126 2.12029 22.5724 2.64904C21.8427 3.17779 21.2558 3.87046 20.8116 4.72703C20.3675 5.58361 20.0502 6.53536 19.8599 7.58229C19.6801 8.62921 19.5902 9.67614 19.5902 10.7231C19.5902 11.7594 19.6801 12.8063 19.8599 13.8638C20.0502 14.9108 20.3675 15.8572 20.8116 16.7032C21.2558 17.5387 21.8427 18.226 22.5724 18.7654C23.3126 19.2941 24.2432 19.5585 25.3642 19.5585C27.9445 19.5585 29.7422 17.9987 30.7574 14.879L32.6451 15.6246Z" fill="#2A2A2A"/>
    <path d="M50.6332 13.7052C50.6332 14.8579 50.4481 15.9048 50.078 16.846C49.7184 17.7872 49.195 18.5962 48.5076 19.273C47.8308 19.9392 47.0165 20.4627 46.0648 20.8434C45.113 21.2241 44.0502 21.4144 42.8764 21.4144C41.7237 21.4144 40.6715 21.2241 39.7198 20.8434C38.768 20.4627 37.9484 19.9392 37.2611 19.273C36.5843 18.5962 36.0608 17.7872 35.6907 16.846C35.3311 15.9048 35.1514 14.8579 35.1514 13.7052C35.1514 12.5843 35.3311 11.5426 35.6907 10.5803C36.0608 9.6074 36.5843 8.78255 37.2611 8.10575C37.9484 7.41837 38.768 6.88434 39.7198 6.50364C40.6715 6.11236 41.7237 5.91672 42.8764 5.91672C44.0502 5.91672 45.113 6.11236 46.0648 6.50364C47.0165 6.88434 47.8308 7.41837 48.5076 8.10575C49.195 8.78255 49.7184 9.6074 50.078 10.5803C50.4481 11.5426 50.6332 12.5843 50.6332 13.7052ZM48.46 13.7052C48.46 12.8592 48.3331 12.082 48.0793 11.3734C47.8361 10.6543 47.4712 10.0251 46.9848 9.48579C46.4983 8.94646 45.9061 8.52346 45.2082 8.21679C44.5208 7.91011 43.7436 7.75677 42.8764 7.75677C42.0093 7.75677 41.2267 7.91011 40.5287 8.21679C39.8414 8.52346 39.2597 8.94646 38.7839 9.48579C38.308 10.0251 37.9432 10.6543 37.6894 11.3734C37.4461 12.082 37.3245 12.8592 37.3245 13.7052C37.3245 14.5512 37.4461 15.3338 37.6894 16.0529C37.9432 16.7614 38.308 17.3748 38.7839 17.8929C39.2597 18.4111 39.8414 18.8182 40.5287 19.1143C41.2267 19.4104 42.0093 19.5585 42.8764 19.5585C43.7436 19.5585 44.5208 19.4104 45.2082 19.1143C45.9061 18.8182 46.4983 18.4111 46.9848 17.8929C47.4712 17.3748 47.8361 16.7614 48.0793 16.0529C48.3331 15.3338 48.46 14.5512 48.46 13.7052Z" fill="#2A2A2A"/>
    <path d="M67.2095 21.0496H65.0205V19.6854C64.3966 20.2459 63.7092 20.6742 62.9584 20.9703C62.2181 21.2664 61.4567 21.4144 60.6742 21.4144C59.5003 21.4144 58.4481 21.2241 57.5175 20.8434C56.5869 20.4627 55.7991 19.9339 55.154 19.2571C54.5195 18.5697 54.0278 17.7502 53.6788 16.7984C53.3404 15.8467 53.1712 14.805 53.1712 13.6735C53.1712 12.5525 53.3404 11.5162 53.6788 10.5644C54.0278 9.60212 54.5195 8.78255 55.154 8.10575C55.7991 7.41837 56.5869 6.88434 57.5175 6.50364C58.4481 6.11236 59.5003 5.91672 60.6742 5.91672C61.4567 5.91672 62.2181 6.05948 62.9584 6.34501C63.7092 6.61996 64.3966 7.03767 65.0205 7.59815V2.20489H62.0701V0.348976H67.2095V21.0496ZM65.0205 9.70787C64.3966 9.02049 63.7145 8.52346 62.9742 8.21679C62.2445 7.91011 61.4673 7.75677 60.6424 7.75677C59.7753 7.75677 59.0086 7.91011 58.3424 8.21679C57.6867 8.52346 57.1368 8.94118 56.6927 9.46993C56.2485 9.99868 55.9101 10.6226 55.6775 11.3417C55.4554 12.0502 55.3443 12.8275 55.3443 13.6735C55.3443 14.5195 55.4554 15.302 55.6775 16.0212C55.9101 16.7297 56.2485 17.3483 56.6927 17.8771C57.1368 18.4058 57.6867 18.8235 58.3424 19.1302C59.0086 19.4369 59.7753 19.5902 60.6424 19.5902C62.3133 19.5902 63.7726 18.9293 65.0205 17.6074V9.70787Z" fill="#2A2A2A"/>
    <path d="M73.1104 14.419C73.269 15.9841 73.84 17.232 74.8235 18.1626C75.807 19.0932 77.0866 19.5585 78.6623 19.5585C79.7726 19.5585 80.7614 19.3311 81.6285 18.8764C82.4957 18.4217 83.1461 17.8559 83.5796 17.1791L85.1024 18.226C84.3622 19.2624 83.4792 20.0555 82.4534 20.6054C81.4276 21.1447 80.1639 21.4144 78.6623 21.4144C77.5202 21.4144 76.4732 21.2241 75.5215 20.8434C74.5697 20.4627 73.7449 19.9339 73.0469 19.2571C72.3596 18.5697 71.8255 17.7555 71.4448 16.8143C71.0641 15.8731 70.8738 14.8262 70.8738 13.6735C70.8738 12.5525 71.043 11.5215 71.3814 10.5803C71.7303 9.62855 72.2274 8.80899 72.8724 8.12161C73.5281 7.42366 74.3212 6.88434 75.2518 6.50364C76.1824 6.11236 77.2241 5.91672 78.3767 5.91672C79.6352 5.91672 80.735 6.12822 81.6761 6.55122C82.6173 6.97422 83.3999 7.56114 84.0238 8.31196C84.6583 9.05221 85.1236 9.94052 85.4197 10.9769C85.7264 12.0132 85.8797 13.1606 85.8797 14.419H73.1104ZM83.5796 12.5631C83.3364 10.9451 82.7495 9.73959 81.8189 8.94646C80.8883 8.15334 79.7409 7.75677 78.3767 7.75677C77.6788 7.75677 77.0337 7.8731 76.4415 8.10575C75.8493 8.32783 75.3258 8.65036 74.8711 9.07336C74.4164 9.49637 74.0357 10.0093 73.729 10.612C73.4223 11.2042 73.2267 11.8546 73.1421 12.5631H83.5796Z" fill="#2A2A2A"/>
    <path d="M88.6398 17.0522C88.6398 16.1216 88.8724 15.3443 89.3377 14.7204C89.803 14.0859 90.4111 13.5889 91.1619 13.2293C91.9233 12.8592 92.7905 12.5948 93.7634 12.4362C94.7469 12.267 95.7462 12.1824 96.7614 12.1824C97.1527 12.1824 97.5016 12.1877 97.8083 12.1983C98.1256 12.2089 98.4217 12.2247 98.6966 12.2459C98.9821 12.267 99.2677 12.2935 99.5532 12.3252C99.8387 12.3569 100.151 12.3939 100.489 12.4362V11.3734C100.489 10.6543 100.33 10.0621 100.013 9.59683C99.7065 9.13153 99.3258 8.76669 98.8711 8.50231C98.4164 8.22736 97.9405 8.03701 97.4435 7.93126C96.9465 7.81494 96.5235 7.75677 96.1745 7.75677C95.0747 7.75677 94.0595 7.90483 93.1289 8.20093C92.1983 8.49703 91.3311 8.89359 90.5274 9.39062L89.5439 7.75677C90.4323 7.21745 91.4263 6.77859 92.5261 6.44019C93.6365 6.09121 94.8526 5.91672 96.1745 5.91672C96.9782 5.91672 97.766 6.02247 98.538 6.23397C99.3205 6.4349 100.019 6.75215 100.632 7.18572C101.256 7.60872 101.753 8.1692 102.123 8.86715C102.493 9.5651 102.678 10.4005 102.678 11.3734V21.0496H100.489V18.575C100.108 19.0509 99.6748 19.4686 99.1884 19.8282C98.7125 20.1877 98.2102 20.4838 97.6814 20.7165C97.1527 20.9385 96.6239 21.1077 96.0952 21.2241C95.5664 21.351 95.0641 21.4144 94.5882 21.4144C92.6319 21.4144 91.1514 21.039 90.1467 20.2882C89.1421 19.5373 88.6398 18.4587 88.6398 17.0522ZM94.5882 19.5585C95.4977 19.5585 96.312 19.4263 97.0311 19.1619C97.7607 18.887 98.3794 18.5486 98.887 18.1467C99.3946 17.7449 99.7859 17.3166 100.061 16.8619C100.346 16.4071 100.489 15.9947 100.489 15.6246V14.2287C99.7806 14.1229 99.0985 14.0648 98.4428 14.0542C97.7977 14.0436 97.2373 14.0383 96.7614 14.0383C95.9788 14.0383 95.2227 14.0912 94.4931 14.197C93.774 14.3027 93.1447 14.4772 92.6054 14.7204C92.0661 14.9531 91.6325 15.2597 91.3047 15.6405C90.9769 16.0212 90.813 16.4917 90.813 17.0522C90.813 17.6761 91.1143 18.2525 91.7171 18.7812C92.3305 19.2994 93.2875 19.5585 94.5882 19.5585Z" fill="#2A2A2A"/>
    <path d="M121.19 21.0496H119.017V10.4217C119.017 9.57568 118.868 8.92003 118.572 8.45473C118.276 7.98943 117.848 7.75677 117.288 7.75677C116.463 7.75677 115.855 8.19035 115.463 9.0575C115.083 9.92465 114.892 11.1408 114.892 12.7059V21.0496H112.703V10.4217C112.703 9.57568 112.55 8.92003 112.243 8.45473C111.947 7.98943 111.519 7.75677 110.958 7.75677C110.44 7.75677 110.028 7.91011 109.721 8.21679C109.414 8.52346 109.171 8.91474 108.991 9.39062C108.822 9.86649 108.711 10.3952 108.658 10.9769C108.605 11.5585 108.579 12.1348 108.579 12.7059V21.0496H106.406V6.2657H108.579V8.40714C109.034 6.74686 110.022 5.91672 111.545 5.91672C112.994 5.91672 113.978 6.64111 114.496 8.08989C115.215 6.64111 116.23 5.91672 117.541 5.91672C118.8 5.91672 119.72 6.29214 120.301 7.04296C120.894 7.78321 121.19 8.90945 121.19 10.4217V21.0496Z" fill="#2A2A2A"/>
    <path d="M133.007 3.31527H130.057V0.348976H133.007V3.31527ZM135.958 21.0496H127.091V19.1937H130.438V8.12161H127.091V6.2657H132.627V19.1937H135.958V21.0496Z" fill="#2A2A2A"/>
    <path d="M156.103 18.226C155.479 19.1989 154.623 19.9762 153.533 20.5578C152.455 21.1289 151.17 21.4144 149.679 21.4144C148.526 21.4144 147.469 21.2241 146.506 20.8434C145.544 20.4627 144.719 19.9339 144.032 19.2571C143.355 18.5697 142.826 17.7555 142.445 16.8143C142.065 15.8731 141.874 14.8262 141.874 13.6735C141.874 12.5525 142.049 11.5162 142.398 10.5644C142.747 9.60212 143.244 8.78255 143.889 8.10575C144.534 7.41837 145.322 6.88434 146.252 6.50364C147.194 6.11236 148.235 5.91672 149.377 5.91672C149.832 5.91672 150.297 5.9696 150.773 6.07535C151.249 6.1811 151.699 6.34501 152.122 6.56709C152.545 6.77859 152.925 7.03767 153.264 7.34435C153.602 7.64045 153.856 7.99471 154.025 8.40714V6.2657H155.976V12.1824H154.025C154.025 11.5268 153.903 10.9293 153.66 10.39C153.428 9.85063 153.105 9.38533 152.693 8.99405C152.28 8.60278 151.788 8.30139 151.217 8.08989C150.646 7.86781 150.033 7.75677 149.377 7.75677C148.489 7.75677 147.712 7.91011 147.046 8.21679C146.39 8.52346 145.84 8.94118 145.396 9.46993C144.952 9.99868 144.613 10.6226 144.381 11.3417C144.159 12.0502 144.048 12.8275 144.048 13.6735C144.048 14.5195 144.174 15.302 144.428 16.0212C144.693 16.7297 145.068 17.343 145.555 17.8612C146.052 18.3794 146.644 18.7918 147.331 19.0985C148.029 19.4052 148.812 19.5585 149.679 19.5585C150.779 19.5585 151.757 19.3417 152.613 18.9081C153.47 18.4746 154.126 17.8982 154.58 17.1791L156.103 18.226Z" fill="#2A2A2A"/>
    <path d="M159.577 17.0522C159.577 16.1216 159.81 15.3443 160.275 14.7204C160.74 14.0859 161.348 13.5889 162.099 13.2293C162.861 12.8592 163.728 12.5948 164.701 12.4362C165.684 12.267 166.683 12.1824 167.699 12.1824C168.09 12.1824 168.439 12.1877 168.746 12.1983C169.063 12.2089 169.359 12.2247 169.634 12.2459C169.919 12.267 170.205 12.2935 170.49 12.3252C170.776 12.3569 171.088 12.3939 171.426 12.4362V11.3734C171.426 10.6543 171.268 10.0621 170.95 9.59683C170.644 9.13153 170.263 8.76669 169.808 8.50231C169.354 8.22736 168.878 8.03701 168.381 7.93126C167.884 7.81494 167.461 7.75677 167.112 7.75677C166.012 7.75677 164.997 7.90483 164.066 8.20093C163.135 8.49703 162.268 8.89359 161.465 9.39062L160.481 7.75677C161.369 7.21745 162.364 6.77859 163.463 6.44019C164.574 6.09121 165.79 5.91672 167.112 5.91672C167.915 5.91672 168.703 6.02247 169.475 6.23397C170.258 6.4349 170.956 6.75215 171.569 7.18572C172.193 7.60872 172.69 8.1692 173.06 8.86715C173.43 9.5651 173.615 10.4005 173.615 11.3734V21.0496H171.426V18.575C171.046 19.0509 170.612 19.4686 170.126 19.8282C169.65 20.1877 169.147 20.4838 168.619 20.7165C168.09 20.9385 167.561 21.1077 167.032 21.2241C166.504 21.351 166.001 21.4144 165.525 21.4144C163.569 21.4144 162.089 21.039 161.084 20.2882C160.079 19.5373 159.577 18.4587 159.577 17.0522ZM165.525 19.5585C166.435 19.5585 167.249 19.4263 167.968 19.1619C168.698 18.887 169.317 18.5486 169.824 18.1467C170.332 17.7449 170.723 17.3166 170.998 16.8619C171.284 16.4071 171.426 15.9947 171.426 15.6246V14.2287C170.718 14.1229 170.036 14.0648 169.38 14.0542C168.735 14.0436 168.174 14.0383 167.699 14.0383C166.916 14.0383 166.16 14.0912 165.43 14.197C164.711 14.3027 164.082 14.4772 163.543 14.7204C163.003 14.9531 162.57 15.2597 162.242 15.6405C161.914 16.0212 161.75 16.4917 161.75 17.0522C161.75 17.6761 162.052 18.2525 162.654 18.7812C163.268 19.2994 164.225 19.5585 165.525 19.5585Z" fill="#2A2A2A"/>
</svg>
